<svg xmlns="http://www.w3.org/2000/svg" width="86" height="34" viewBox="0 0 86 34" fill="none">
    <g clip-path="url(#clip0_9102_10011)">
        <path d="M47.7877 11.3675C46.5886 9.77336 45.1726 9.62172 44.4341 9.62172C42.2796 9.62172 41.6039 10.9694 41.6039 12.0119C41.6039 12.5029 41.7581 12.9616 42.2491 13.39C42.7421 13.8487 43.4177 14.0951 44.7101 14.5538C46.3107 15.1054 47.8181 15.657 48.863 16.6066C49.7861 17.4331 50.6159 18.813 50.6159 20.8961C50.6159 24.8805 47.7249 27.6062 43.4786 27.6062C39.6949 27.6062 37.4795 25.3089 36.4022 23.7451L39.0173 21.2639C40.0013 23.256 41.878 23.9915 43.3245 23.9915C45.1402 23.9915 46.4934 22.8883 46.4934 21.1729C46.4934 20.4374 46.2479 19.8555 45.6941 19.3343C44.9251 18.6291 43.6937 18.2311 42.5251 17.833C41.4478 17.4653 40.1555 16.9744 39.1106 16.055C38.433 15.4731 37.4795 14.3396 37.4795 12.2565C37.4795 9.254 39.5103 6.25153 44.0629 6.25153C45.3553 6.25153 47.7858 6.49605 49.8775 8.64175L47.7858 11.3694L47.7877 11.3675Z" fill="#212121"/>
        <path d="M59.3235 6.70831C61.6303 6.70831 63.2309 6.95283 64.7383 8.2702C66.3999 9.74111 66.8301 11.7333 66.8301 13.2042C66.8301 14.0003 66.7063 16.2067 65.138 17.7704C63.9999 18.904 62.3079 19.5787 59.9383 19.5787H57.3536V27.1475H53.3548V6.70831H59.3235ZM57.3536 16.146H58.9847C59.7536 16.146 60.7376 16.146 61.5998 15.5015C62.3383 14.9196 62.7075 14.0003 62.7075 13.1113C62.7075 11.9778 62.1537 11.212 61.5694 10.7836C60.7395 10.2017 59.6927 10.1392 58.7392 10.1392H57.3555V16.1441L57.3536 16.146Z" fill="#212121"/>
        <path d="M73.0139 14.6144H81.6909V6.70831H85.6898V27.1475H81.6909V18.0472H73.0139V27.1475H69.0151V16.9279V6.70831H73.0139V14.6144Z" fill="#212121"/>
        <path d="M13.3592 23.0416C11.8917 23.0416 10.7022 21.8569 10.7022 20.3954V22.181C10.7022 23.6614 9.49358 24.865 8.00712 24.865C6.52065 24.865 5.31207 23.6614 5.31207 22.181V19.2392C5.31207 17.7778 4.12251 16.5931 2.65508 16.5931C1.18765 16.5931 0 17.7759 0 19.2373V22.1791C0 26.5767 3.5934 30.1554 8.00902 30.1554C12.4246 30.1554 16.018 26.5767 16.018 22.1791V20.3936C16.018 21.855 14.8285 23.0397 13.3611 23.0397L13.3592 23.0416Z" fill="#0F848F"/>
        <path d="M18.7112 10.6336C14.2955 10.6336 10.7021 14.2123 10.7021 18.6099V20.3954C10.7021 18.934 11.8917 17.7493 13.3591 17.7493C14.8266 17.7493 16.0161 18.934 16.0161 20.3954V18.6099C16.0161 17.1295 17.2247 15.9258 18.7112 15.9258C20.1976 15.9258 21.4062 17.1295 21.4062 18.6099V23.3733C21.4062 24.8347 22.5958 26.0194 24.0632 26.0194C25.5306 26.0194 26.7202 24.8347 26.7202 23.3733V18.6099C26.7202 14.2123 23.1268 10.6336 18.7112 10.6336Z" fill="#A5CF64"/>
        <path d="M13.3591 23.0396C14.8265 23.0396 16.0161 21.8549 16.0161 20.3935C16.0161 18.9321 14.8265 17.7474 13.3591 17.7474C11.8917 17.7474 10.7021 18.9321 10.7021 20.3935C10.7021 21.8549 11.8917 23.0396 13.3591 23.0396Z" fill="#008051"/>
        <path d="M20.5895 6.86865C21.6271 5.83527 21.6271 4.15985 20.5895 3.12647C19.5519 2.0931 17.8696 2.0931 16.832 3.12647C15.7943 4.15984 15.7943 5.83527 16.832 6.86864C17.8696 7.90202 19.5519 7.90202 20.5895 6.86865Z" fill="#A5CF64"/>
        <path d="M8.61837 13.2096C10.0465 12.8739 10.9311 11.4487 10.594 10.0264C10.2569 8.60403 8.82587 7.72315 7.3977 8.05885C5.96953 8.39455 5.08502 9.81971 5.4221 11.242C5.75918 12.6644 7.1902 13.5453 8.61837 13.2096Z" fill="#0F848F"/>
    </g>
    <defs>
        <clipPath id="clip0_9102_10011">
            <rect width="85.6897" height="32.7637" fill="white" transform="translate(0 0.706909)"/>
        </clipPath>
    </defs>
</svg>